<?xml version="1.0" encoding="UTF-8"?>
<svg width="24px" height="24px" viewBox="0 0 24 24" version="1.1" xmlns="http://www.w3.org/2000/svg" xmlns:xlink="http://www.w3.org/1999/xlink">
    <title>CE0796BF-84BF-451B-9920-14A12D090B67</title>
    <g id="Page-1" stroke="none" stroke-width="1" fill="none" fill-rule="evenodd">
        <g id="ag_03_dashboard_1" transform="translate(-15.000000, -264.000000)">
            <g id="Menue" transform="translate(15.000000, 152.000000)">
                <g id="Daten-Management" transform="translate(0.000000, 100.000000)">
                    <g id="icons8-data" transform="translate(0.000000, 12.000000)">
                        <rect id="Rectangle" x="0" y="0" width="24" height="24"></rect>
                        <path d="M4,3 L4,11 L6,11 L6,3 L4,3 Z M10,3 C8.3550302,3 7,4.3550302 7,6 L7,8 C7,9.6449698 8.3550302,11 10,11 C11.64497,11 13,9.6449698 13,8 L13,6 C13,4.3550302 11.64497,3 10,3 Z M14,3 L14,11 L16,11 L16,3 L14,3 Z M18,3 L18,11 L20,11 L20,3 L18,3 Z M10,5 C10.56503,5 11,5.4349698 11,6 L11,8 C11,8.5650302 10.56503,9 10,9 C9.4349698,9 9,8.5650302 9,8 L9,6 C9,5.4349698 9.4349698,5 10,5 Z M7,13 C5.3550302,13 4,14.35503 4,16 L4,18 C4,19.64497 5.3550302,21 7,21 C8.6449698,21 10,19.64497 10,18 L10,16 C10,14.35503 8.6449698,13 7,13 Z M14,13 C12.35503,13 11,14.35503 11,16 L11,18 C11,19.64497 12.35503,21 14,21 C15.64497,21 17,19.64497 17,18 L17,16 C17,14.35503 15.64497,13 14,13 Z M18,13 L18,21 L20,21 L20,13 L18,13 Z M7,15 C7.5650302,15 8,15.43497 8,16 L8,18 C8,18.56503 7.5650302,19 7,19 C6.4349698,19 6,18.56503 6,18 L6,16 C6,15.43497 6.4349698,15 7,15 Z M14,15 C14.56503,15 15,15.43497 15,16 L15,18 C15,18.56503 14.56503,19 14,19 C13.43497,19 13,18.56503 13,18 L13,16 C13,15.43497 13.43497,15 14,15 Z" id="Shape" fill="#000000" fill-rule="nonzero"></path>
                    </g>
                </g>
            </g>
        </g>
    </g>
</svg>
