<?xml version="1.0" encoding="UTF-8"?>
<svg width="24px" height="24px" viewBox="0 0 24 24" version="1.1" xmlns="http://www.w3.org/2000/svg" xmlns:xlink="http://www.w3.org/1999/xlink">
    <title>F6D285AB-67B6-44CF-8DCF-E78247281E97</title>
    <g id="Page-1" stroke="none" stroke-width="1" fill="none" fill-rule="evenodd">
        <g id="ag_03_dashboard_1" transform="translate(-15.000000, -364.000000)">
            <g id="Menue" transform="translate(15.000000, 152.000000)">
                <g id="Edge-Management" transform="translate(0.000000, 200.000000)">
                    <g id="icons8-cloud_computing" transform="translate(0.000000, 12.000000)">
                        <rect id="Rectangle" x="0" y="0" width="24" height="24"></rect>
                        <path d="M16.5,3 C15.068,3 13.725156,3.7109531 12.910156,4.8769531 C10.740156,4.9569531 9,6.7475 9,8.9375 C9,11.1765 10.8225,13 13.0625,13 L20.5625,13 C22.4565,13 24,11.4575 24,9.5625 C24,7.7105 22.527406,6.1969062 20.691406,6.1289062 C20.149406,4.2859063 18.468,3 16.5,3 Z M4,5 C2.897,5 2,5.897 2,7 L2,17 C2,18.103 2.897,19 4,19 L0,19 L0,21 L24,21 L24,19 L20,19 C21.103,19 22,18.103 22,17 L22,14.800781 C21.541,14.926781 21.0605,15 20.5625,15 L20.001953,15 L20.001953,17 L4,17 L4,7 L7.3261719,7 C7.5741719,6.258 7.9551719,5.581 8.4511719,5 L4,5 Z M16.5,5 C17.562,5 18.474484,5.6804063 18.771484,6.6914062 L19.177734,8.0722656 L20.617188,8.1269531 C21.380188,8.1549531 22,8.7985 22,9.5625 C22,10.3545 21.3545,11 20.5625,11 L13.0625,11 C11.9245,11 11,10.0745 11,8.9375 C11,7.8415 11.889375,6.9169531 12.984375,6.8769531 L13.980469,6.8398438 L14.550781,6.0234375 C14.997781,5.3824375 15.727,5 16.5,5 Z" id="Shape" fill="#000000" fill-rule="nonzero"></path>
                    </g>
                </g>
            </g>
        </g>
    </g>
</svg>
