<?xml version="1.0" encoding="UTF-8"?>
<svg width="24px" height="24px" viewBox="0 0 24 24" version="1.1" xmlns="http://www.w3.org/2000/svg" xmlns:xlink="http://www.w3.org/1999/xlink">
    <title>843E94C8-7E66-430D-8CB6-8E84C20A579E</title>
    <g id="Page-1" stroke="none" stroke-width="1" fill="none" fill-rule="evenodd">
        <g id="ag_03_dashboard_1" transform="translate(-15.000000, -414.000000)">
            <g id="Menue" transform="translate(15.000000, 152.000000)">
                <g id="Monitoring" transform="translate(0.000000, 250.000000)">
                    <g id="icons8-heart_monitor" transform="translate(0.000000, 12.000000)">
                        <rect id="Rectangle" x="0" y="0" width="24" height="24"></rect>
                        <path d="M5,3 C4.4777778,3 3.9453899,3.1913289 3.5683594,3.5683594 C3.1913289,3.9453899 3,4.4777778 3,5 L3,19 C3,19.522222 3.1913289,20.05461 3.5683594,20.431641 C3.9453899,20.808671 4.4777778,21 5,21 L19,21 C19.522222,21 20.05461,20.808671 20.431641,20.431641 C20.808671,20.05461 21,19.522222 21,19 L21,5 C21,4.4777778 20.808671,3.9453899 20.431641,3.5683594 C20.05461,3.1913289 19.522222,3 19,3 L5,3 Z M5,5 L19,5 L19,15 L16.693359,15 L15.435547,11.648438 C15.2885201,11.2593111 14.9159767,11.0018232 14.5,11.0018232 C14.0840233,11.0018232 13.7114799,11.2593111 13.564453,11.648438 L12.306641,15 L11.330078,15 L9.9824219,7.8164062 C9.89299353,7.33750586 9.47149921,6.99272189 8.984375,7 C8.50902716,7.0077547 8.10483619,7.34907149 8.0175781,7.8164062 L6.6699219,15 L5,15 L5,5 Z M9,13.423828 L9.5175781,16.183594 C9.60597158,16.6566548 10.0187518,16.9996808 10.5,17 L13,17 C13.4164382,16.999714 13.7891162,16.7414066 13.935547,16.351562 L14.5,14.845703 L15.064453,16.351562 C15.2108838,16.7414066 15.5835618,16.999714 16,17 L19,17 L19,19 L5,19 L5,17 L7.5,17 C7.9812482,16.9996808 8.39402842,16.6566548 8.4824219,16.183594 L9,13.423828 Z" id="Shape" fill="#000000" fill-rule="nonzero"></path>
                    </g>
                </g>
            </g>
        </g>
    </g>
</svg>
