<?xml version="1.0" encoding="UTF-8"?>
<svg width="24px" height="24px" viewBox="0 0 24 24" version="1.1" xmlns="http://www.w3.org/2000/svg" xmlns:xlink="http://www.w3.org/1999/xlink">
    <title>6C71728A-9B64-4892-9939-5B347A512B54</title>
    <g id="Page-1" stroke="none" stroke-width="1" fill="none" fill-rule="evenodd">
        <g id="ag_03_dashboard_1" transform="translate(-15.000000, -314.000000)">
            <g id="Menue" transform="translate(15.000000, 152.000000)">
                <g id="Modell-Management" transform="translate(0.000000, 150.000000)">
                    <g id="icons8-module-copy" transform="translate(0.000000, 12.000000)">
                        <rect id="Rectangle" x="0" y="0" width="24" height="24"></rect>
                        <path d="M11.5,2 L8.5,3.71875 L11.5,5.4375 L14.5,3.71875 L11.5,2 Z M8,4.5625 L8,8 L11,9.71875 L11,6.3125 L8,4.5625 Z M15,4.5625 L12,6.3125 L12,9.71875 L15,8 L15,4.5625 Z M7,6.125 L3,7.625 L3,11.4375 L5,10.28125 L5,9 L7,8.25 L7,6.125 Z M16,6.125 L16,8.25 L18,9 L18,10.28125 L20,11.4375 L20,7.625 L16,6.125 Z M5.5,11.28125 L2.5,13 L5.5,14.71875 L8.5,13 L5.5,11.28125 Z M17.5,11.28125 L14.5,13 L17.5,14.71875 L20.5,13 L17.5,11.28125 Z M2,13.875 L2,17.28125 L5,19 L5,15.59375 L2,13.875 Z M9,13.875 L6,15.59375 L6,19 L9,17.28125 L9,13.875 Z M14,13.875 L14,17.28125 L17,19 L17,15.59375 L14,13.875 Z M21,13.875 L18,15.59375 L18,19 L21,17.28125 L21,13.875 Z M8.8125,18.40625 L6.71875,19.59375 L11.5,22 L16.28125,19.59375 L14.1875,18.40625 L11.5,19.75 L8.8125,18.40625 Z" id="Shape" fill="#000000" fill-rule="nonzero"></path>
                    </g>
                </g>
            </g>
        </g>
    </g>
</svg>
