<?xml version="1.0" encoding="UTF-8"?>
<svg width="18px" height="18px" viewBox="0 0 18 18" version="1.1" xmlns="http://www.w3.org/2000/svg" xmlns:xlink="http://www.w3.org/1999/xlink">
    <title>FF81B405-8AA8-4B08-A1BE-A947144DA9E5</title>
    <g id="Page-1" stroke="none" stroke-width="1" fill="none" fill-rule="evenodd">
        <g id="ag_03_dashboard_1" transform="translate(-146.000000, -468.000000)">
            <g id="Menue" transform="translate(15.000000, 152.000000)">
                <g id="Marktplatz" transform="translate(0.000000, 300.000000)">
                    <g id="icons8-external_link-copy" transform="translate(131.000000, 16.000000)">
                        <rect id="Rectangle" x="0" y="0" width="18" height="18"></rect>
                        <path d="M3.75,2.25 C2.9302029,2.25 2.25,2.9302029 2.25,3.75 L2.25,14.25 C2.25,15.0697973 2.9302029,15.75 3.75,15.75 L14.25,15.75 C15.0697973,15.75 15.75,15.0697973 15.75,14.25 L15.75,9 L14.25,9 L14.25,14.25 L3.75,14.25 L3.75,3.75 L9,3.75 L9,2.25 L3.75,2.25 Z M10.5,2.25 L10.5,3.75 L13.1894535,3.75 L6.2197266,10.7197267 L7.2802734,11.7802733 L14.25,4.81054688 L14.25,7.5 L15.75,7.5 L15.75,2.25 L10.5,2.25 Z" id="Shape" fill="#000000" fill-rule="nonzero"></path>
                    </g>
                </g>
            </g>
        </g>
    </g>
</svg>
